<svg width="1004" height="100" viewBox="0 0 1004 100" fill="none" xmlns="http://www.w3.org/2000/svg">
<g clip-path="url(#clip0_1_15)">
<path d="M22.4761 1.46439H0V98.5356H68.8706V79.6539H22.4761V1.46439Z" fill="black"/>
<path d="M118.238 61.5265H136.477V78.5001C133.148 79.787 126.581 81.0517 120.368 81.0517C100.155 81.0517 93.4324 70.801 93.4324 49.9889C93.4324 29.1768 99.8669 18.4158 119.991 18.4158C131.24 18.4158 137.63 21.9215 142.933 28.6443L156.867 15.8198C148.369 3.70535 133.437 0 119.547 0C88.1296 0 71.6441 17.1511 71.6441 49.8558C71.6441 82.5605 86.5542 100 119.414 100C134.413 100 149.19 96.1393 157.2 90.5258V43.4435H118.26V61.5265H118.238Z" fill="black"/>
<path d="M305.059 65.4094C304.726 51.8083 296.517 43.9538 281.873 43.9538H239.405C233.215 43.9538 229.976 40.5369 229.953 35.1453V24.6727C229.953 24.6727 229.953 24.4952 229.953 24.4065C230.064 19.9467 233.858 16.3745 239.96 16.3745H299.223V4.28223H240.426C227.979 4.28223 220.191 10.2063 217.928 20.3683C217.484 22.3208 217.218 24.3843 217.218 26.6252V33.7253C217.218 34.0359 217.262 34.3244 217.262 34.5906C217.595 48.2139 225.826 56.024 240.47 56.024H282.938C289.15 56.024 292.345 59.4409 292.39 64.8547V75.3051C292.39 75.3051 292.345 75.4826 292.345 75.5713C292.234 80.0533 288.462 83.6255 282.339 83.6255H219.614V95.6956H281.873C294.298 95.6956 302.108 89.7715 304.349 79.6317C304.815 77.6792 305.059 75.5935 305.059 73.3969V66.2969C305.059 65.9862 305.037 65.72 305.014 65.4315" fill="black"/>
<path d="M335.057 4.19348H322.587V95.7843H335.057V4.19348Z" fill="black"/>
<path d="M396.095 56.4455H428.644V70.1575C428.644 79.6761 423.63 83.6033 414.067 83.6033H380.763C372.043 83.6033 366.208 78.8551 366.208 70.1575V29.7315C366.208 21.0118 372.043 15.9973 380.763 15.9973H436.477V4.23785H381.251C362.991 4.23785 353.184 14.7326 353.184 31.3734V68.5156C353.184 85.1564 363.013 95.6734 381.251 95.6734H413.579C431.839 95.6734 441.646 85.933 441.646 68.5156V44.5307H396.095V56.4677V56.4455Z" fill="black"/>
<path d="M581.029 61.4821L602.041 17.1511L622.986 61.4821H581.029ZM609.563 4.21567H594.542L550.521 95.8065H564.766L575.327 73.5523H628.711L639.228 95.8065H653.628L609.541 4.21567H609.563Z" fill="black"/>
<path d="M529.243 80.1642L471.866 4.28223H455.98V95.7843H468.405V19.8802L525.56 95.7178H541.913V4.19348H529.243V80.1642Z" fill="black"/>
<path d="M636.654 4.21567V15.9973H670.934V95.4737H684.269V15.9973H685.134H718.549V4.21567H636.654Z" fill="black"/>
<path d="M798.979 67.7169C798.979 77.2354 794.364 83.6033 783.182 83.6033H757.999C746.794 83.6033 742.201 77.2354 742.201 67.6947V4.19348H728.888V66.3634C728.888 85.4671 738.251 95.6734 758.176 95.6734H782.405C802.33 95.6734 812.314 85.4671 812.314 66.3634V4.19348H799.001V67.7169H798.979Z" fill="black"/>
<path d="M887.397 51.4311H839.672V16.0639H886.843C893.898 16.0639 899.001 19.6805 899.001 26.7362V40.7366C899.001 47.8145 894.453 51.4311 887.397 51.4311ZM896.006 62.4362C904.748 60.1509 912.026 53.5833 912.026 39.9157V28.1118C912.026 12.3364 903.084 4.28224 887.264 4.28224H826.647V95.5625H839.672V63.1906H867.273C891.014 63.1906 898.957 85.0899 898.957 95.7844H912.048C911.138 80.5192 905.502 69.3144 896.028 62.4362" fill="black"/>
<path d="M1003.42 15.9973V4.28223H925.56V95.7178H1003.42V83.9805H938.562V55.7577H1002.11V43.9982H938.562V15.9973H1003.42Z" fill="black"/>
</g>
<defs>
<clipPath id="clip0_1_15">
<rect width="1003.42" height="100" fill="white"/>
</clipPath>
</defs>
</svg>
