<svg fill="none" height="100" viewBox="0 0 389 100" width="389" xmlns="http://www.w3.org/2000/svg" xmlns:xlink="http://www.w3.org/1999/xlink"><clipPath id="a"><path d="m0 0h389v100h-389z"/></clipPath><g clip-path="url(#a)" fill="#000"><path d="m388.613 17c0 2.6133-.426 4.96-1.28 7.04-.8 2.0267-1.973 3.7333-3.52 5.12-1.493 1.3867-3.28 2.4533-5.36 3.2s-4.346 1.12-6.8 1.12c-2.453 0-4.72-.3733-6.8-1.12s-3.866-1.8133-5.36-3.2c-1.493-1.3867-2.666-3.0933-3.52-5.12-.853-2.08-1.28-4.4267-1.28-7.04s.427-4.9333 1.28-6.96c.854-2.02667 2.027-3.73334 3.52-5.12 1.494-1.44 3.28-2.53333 5.36-3.28 2.08-.746668 4.347-1.120001 6.8-1.120001 2.454 0 4.72.373333 6.8 1.120001 2.08.74667 3.867 1.84 5.36 3.28 1.547 1.38666 2.72 3.09333 3.52 5.12.854 2.0267 1.28 4.3467 1.28 6.96zm-3.84 0c0-3.9467-1.146-7.12-3.44-9.52-2.293-2.4-5.52-3.6-9.68-3.6-4.106 0-7.333 1.22666-9.68 3.68-2.293 2.4-3.44 5.5467-3.44 9.44 0 3.9467 1.147 7.12 3.44 9.52 2.347 2.4 5.574 3.6 9.68 3.6 4.16 0 7.387-1.2 9.68-3.6 2.294-2.4 3.44-5.5733 3.44-9.52zm-9.92 8.72-3.36-6.72h-2.08v6.72h-4.48v-17.68h7.28c2.187 0 3.84.42666 4.96 1.28 1.12.8 1.68 2.1333 1.68 4 0 1.28-.266 2.32-.8 3.12-.533.8-1.28 1.4133-2.24 1.84l3.84 7.44zm-2.8-9.92c1.494 0 2.24-.8267 2.24-2.48 0-.7467-.213-1.2533-.64-1.52-.426-.2667-.96-.4-1.6-.4h-2.64v4.4z"/><path d="m29.8667 99.2h16.5333v-83.4333h29.7v-13.33335h-76.1v13.33335h29.8667z"/><path d="m222.7 31.6c-4.1 0-8.033.6-11.833 1.8-.967.3333-1.8.6-2.567.9333-.167.1-.333.1334-.467.2l-.333.1334c-.567.2333-1.1.4666-1.633.7333-.367.1667-.667.3667-1.034.5333l-.633.3667c-.233.1333-.433.2-.633.3-.534.3333-1.1.7-1.6 1.1l-.3.1667c-.8.5666-1.4 1.0333-2 1.5-2.067 1.7666-3.7 3.6666-4.9 5.7333-.567 1.1667-2.1 4.7333-2.1 11.7333v42.3667h16.266v-41.2333c0-.9.167-1.6667.334-2.3334.066-.3333.133-.7.266-1.1 2.134-6.6 9.6-8.7333 12.034-8.9333h.4c.233-.0667.433-.0667.666-.0667l1.4.1c4.367.5667 12.367 4.1334 12.367 12.3667v41.2333h16.233v-42.3666c0-7.7667-1.966-11.6-2.333-12.3-4.8-7.6334-15.9-12.8667-27.567-12.9"/><path d="m114.933 31.6c-3.9 0-7.7.6-11.366 1.6667l-2.367.7333v-31.56665h-16.2333v96.76665h16.3333v-41.7c.067-.7333.133-1.3.2-1.8333.067-.3333.167-.7.3-1.1 2.167-6.6 9.6-8.7334 12-8.9334h.433c.167-.0666.434-.0666.6-.0666l1.4.1c4.334.5666 12.334 4.1333 12.334 12.3666v41.2334h16.266v-42.3667c0-7.7666-2-11.6-2.366-12.3-4.8-7.6333-15.9-12.8666-27.567-12.9"/><path d="m178.733 19.4c0 5.4333-4.4 9.8333-9.8 9.8333s-9.8-4.3666-9.8-9.8333 4.367-9.79999 9.8-9.79999c5.434 0 9.8 4.39999 9.8 9.79999z"/><path d="m160.8 38.6667v60.5333h16.233v-60.5333c-2.5 1.0333-5.233 1.6333-8.133 1.6333s-5.633-.6333-8.133-1.6333"/><path d="m352.1 91.4c-1.867-6.0333-8.533-5.9-8.533-5.9h-14.734l.8-1.1667c2.067-3.0333 3.734-6.2333 5.134-9.8666 2.4-6.2667 3.6-14.4 3.6-24.3 0-7.7334-.6-14.8334-1.734-21.0667-1.233-6.1667-3.2-11.4667-5.9-15.7333-2.733-4.26669-6.4-7.60003-10.833-9.86669-4.5-2.3-10.1-3.4666695-16.633-3.4666695-13.034 0-22.7 4.0666695-28.8 12.1333595-6.034 8.0333-9.1 20.5333-9.1 37.2 0 7.8.6 14.8666 1.766 21 1.2 6.1 3.167 11.3666 5.867 15.5333 2.733 4.2667 6.333 7.6 10.7 9.8667 4.4 2.3 10 3.4666 16.5 3.4666h.2.333.367.133 53.234l-2.367-7.7666zm-30.9-26.9667c-.7 4.6-1.933 8.5667-3.6 11.7667-1.8 3.1667-4.1 5.5667-6.967 7.1-2.166 1.2-4.766 1.9333-7.733 2.2333l-1.7.1c-.267 0-.433.0334-.867.0334-3.8 0-6.933-.9-9.266-2.7-2.467-1.8334-4.467-4.3334-5.867-7.5-1.467-3.1667-2.433-6.9334-3-11.1334-.533-4.1666-.8-8.7333-.8-13.5 0-5.9.367-11.2 1.1-15.7666.7-4.6 1.967-8.5667 3.7-11.8 1.8-3.2 4.133-5.7 7.067-7.3334 2.866-1.6666 6.166-2.4333 10.233-2.4333 3.667 0 6.8.9333 9.2 2.8 2.467 1.9 4.433 4.5 5.867 7.6333 1.4 3.1334 2.366 6.8334 2.9 11.0667.533 4.1333.8 8.6.8 13.2667 0 6-.367 11.4-1.1 16.1666"/></g></svg>